<?xml version="1.0" standalone="no"?>
<!DOCTYPE svg PUBLIC "-//W3C//DTD SVG 20010904//EN"
 "http://www.w3.org/TR/2001/REC-SVG-20010904/DTD/svg10.dtd">
<svg version="1.0" xmlns="http://www.w3.org/2000/svg"
 width="700.000000pt" height="700.000000pt" viewBox="0 0 700.000000 700.000000"
 preserveAspectRatio="xMidYMid meet">
<metadata>
Created by potrace 1.14, written by Peter Selinger 2001-2017
</metadata>
<g transform="translate(0.000000,700.000000) scale(0.100000,-0.100000)"
fill="#000000" stroke="none">
<path d="M0 3500 l0 -3500 3495 0 3495 0 0 3500 0 3500 -3495 0 -3495 0 0
-3500z m4270 2363 c560 -327 560 -327 560 -412 0 -42 -24 -89 -270 -518 -148
-260 -270 -477 -270 -483 0 -6 50 -10 131 -10 l131 0 39 -38 c63 -63 64 -135
4 -200 l-33 -37 -1061 0 -1060 0 -31 30 c-65 62 -63 154 5 214 l36 31 196 0
197 0 -42 36 c-53 45 -69 95 -49 153 13 36 781 1392 834 1471 31 47 78 71 128
67 32 -3 157 -72 555 -304z m-1530 -850 c0 -3 -35 -69 -77 -145 l-78 -138
-115 0 -115 -1 -190 -419 c-104 -231 -191 -425 -193 -430 -3 -7 531 -10 1528
-10 1222 0 1531 3 1527 13 -3 6 -89 193 -191 414 l-187 403 17 32 c9 18 46 84
82 146 56 98 67 112 79 100 8 -8 139 -282 291 -609 l277 -594 3 -650 c2 -425
-1 -662 -7 -685 -6 -20 -24 -49 -41 -65 l-31 -30 -1819 0 -1818 0 -27 25 c-56
51 -55 36 -55 737 l0 648 278 610 c273 600 278 610 317 632 39 22 49 23 293
23 138 0 252 -3 252 -7z"/>
<path d="M3434 5263 c-175 -307 -326 -572 -336 -589 l-19 -32 174 -101 174
-101 263 2 263 3 268 470 c148 259 268 474 266 480 -4 11 -707 425 -723 425
-6 0 -155 -251 -330 -557z"/>
<path d="M1890 3100 l0 -480 1610 0 1610 0 0 480 0 480 -1610 0 -1610 0 0
-480z"/>
</g>
</svg>
